<?xml version="1.0" encoding="utf-8"?>
<!-- Generator: Adobe Illustrator 25.2.3, SVG Export Plug-In . SVG Version: 6.00 Build 0)  -->
<svg version="1.1" id="Layer_1" xmlns="http://www.w3.org/2000/svg" xmlns:xlink="http://www.w3.org/1999/xlink" x="0px" y="0px"
	 viewBox="0 0 866.33 520.59" style="enable-background:new 0 0 866.33 520.59;" xml:space="preserve">
<style type="text/css">
	.st0{opacity:0.74;fill:url(#SVGID_1_);}
	.st1{opacity:0.74;fill:url(#SVGID_2_);}
	.st2{fill:url(#SVGID_3_);}
</style>
<linearGradient id="SVGID_1_" gradientUnits="userSpaceOnUse" x1="43.6113" y1="274.0531" x2="825.9642" y2="274.0531">
	<stop  offset="0" style="stop-color:#FFF33B"/>
	<stop  offset="0.0595" style="stop-color:#FFE029"/>
	<stop  offset="0.1303" style="stop-color:#FFD217"/>
	<stop  offset="0.2032" style="stop-color:#FEC90E"/>
	<stop  offset="0.2809" style="stop-color:#FDC70C"/>
	<stop  offset="0.6685" style="stop-color:#F3903F"/>
	<stop  offset="0.8876" style="stop-color:#ED683C"/>
	<stop  offset="1" style="stop-color:#E93E3A"/>
</linearGradient>
<path class="st0" d="M825.96,485.56c-15.97-19.88-40.69-46.34-76.11-70.8c-43.82-30.26-83-42.94-92.92-46.02
	c-61.71-19.13-71.32-1.35-115.04-19.47c-51.17-21.21-51.02-50.97-100.88-76.99c-24.02-12.53-48.31-18.29-123.02-20.42
	c-171-4.88-213.52,20.42-246.89-7.9c-23.16-19.66-41.75-65.01-12.39-181.42c255.75,1.18,511.5,2.36,767.26,3.54V485.56z"/>
<linearGradient id="SVGID_2_" gradientUnits="userSpaceOnUse" x1="41.9873" y1="260.2964" x2="824.3401" y2="260.2964">
	<stop  offset="0" style="stop-color:#FFF33B"/>
	<stop  offset="0.0595" style="stop-color:#FFE029"/>
	<stop  offset="0.1303" style="stop-color:#FFD217"/>
	<stop  offset="0.2032" style="stop-color:#FEC90E"/>
	<stop  offset="0.2809" style="stop-color:#FDC70C"/>
	<stop  offset="0.6685" style="stop-color:#F3903F"/>
	<stop  offset="0.8876" style="stop-color:#ED683C"/>
	<stop  offset="1" style="stop-color:#E93E3A"/>
</linearGradient>
<path class="st1" d="M824.34,471.8c-15.97-19.88-40.69-46.34-76.11-70.8c-43.82-30.26-83-42.94-92.92-46.02
	c-61.71-19.13-71.32-1.35-115.04-19.47c-51.17-21.21-51.02-50.97-100.88-76.99c-24.02-12.53-48.31-18.29-123.02-20.42
	c-171-4.88-213.52,20.42-246.89-7.9C46.31,210.55,27.72,165.2,57.08,48.79c255.75,1.18,511.5,2.36,767.26,3.54V471.8z"/>
<linearGradient id="SVGID_3_" gradientUnits="userSpaceOnUse" x1="41.9873" y1="248.0266" x2="824.3401" y2="248.0266">
	<stop  offset="0" style="stop-color:#FFF33B"/>
	<stop  offset="0.0595" style="stop-color:#FFE029"/>
	<stop  offset="0.1303" style="stop-color:#FFD217"/>
	<stop  offset="0.2032" style="stop-color:#FEC90E"/>
	<stop  offset="0.2809" style="stop-color:#FDC70C"/>
	<stop  offset="0.6685" style="stop-color:#F3903F"/>
	<stop  offset="0.8876" style="stop-color:#ED683C"/>
	<stop  offset="1" style="stop-color:#E93E3A"/>
</linearGradient>
<path class="st2" d="M824.34,459.53c-15.97-19.88-40.69-46.34-76.11-70.8c-43.82-30.26-83-42.94-92.92-46.02
	c-61.71-19.13-71.32-1.35-115.04-19.47c-51.17-21.21-51.02-50.97-100.88-76.99c-24.02-12.53-48.31-18.29-123.02-20.42
	c-171-4.88-213.52,20.42-246.89-7.9c-23.16-19.66-41.75-65.01-12.39-181.42c255.75,1.18,511.5,2.36,767.26,3.54V459.53z"/>
</svg>
